<?xml version="1.0" encoding="UTF-8" standalone="no"?>
<svg
   xmlns:dc="http://purl.org/dc/elements/1.1/"
   xmlns:cc="http://creativecommons.org/ns#"
   xmlns:rdf="http://www.w3.org/1999/02/22-rdf-syntax-ns#"
   xmlns:svg="http://www.w3.org/2000/svg"
   xmlns="http://www.w3.org/2000/svg"
   xmlns:sodipodi="http://sodipodi.sourceforge.net/DTD/sodipodi-0.dtd"
   xmlns:inkscape="http://www.inkscape.org/namespaces/inkscape"
   sodipodi:docname="9 - Lift.svg"
   inkscape:version="1.0 (4035a4fb49, 2020-05-01)"
   id="svg831"
   version="1.1"
   viewBox="0 0 22.577778 22.577778"
   height="50"
   width="50"
   inkscape:export-filename="C:\Users\RainBoyz\Desktop\Oktober 2\Expand [Done!]\9 - Lift.png"
   inkscape:export-xdpi="576"
   inkscape:export-ydpi="576">
  <defs
     id="defs825">
    <pattern
       y="0"
       x="0"
       height="6"
       width="6"
       patternUnits="userSpaceOnUse"
       id="EMFhbasepattern" />
    <pattern
       y="0"
       x="0"
       height="6"
       width="6"
       patternUnits="userSpaceOnUse"
       id="EMFhbasepattern-9" />
    <pattern
       y="0"
       x="0"
       height="6"
       width="6"
       patternUnits="userSpaceOnUse"
       id="EMFhbasepattern-0" />
    <pattern
       y="0"
       x="0"
       height="6"
       width="6"
       patternUnits="userSpaceOnUse"
       id="EMFhbasepattern-7" />
    <pattern
       y="0"
       x="0"
       height="6"
       width="6"
       patternUnits="userSpaceOnUse"
       id="EMFhbasepattern-2" />
    <pattern
       y="0"
       x="0"
       height="6"
       width="6"
       patternUnits="userSpaceOnUse"
       id="EMFhbasepattern-98" />
    <pattern
       y="0"
       x="0"
       height="6"
       width="6"
       patternUnits="userSpaceOnUse"
       id="EMFhbasepattern-6" />
    <pattern
       y="0"
       x="0"
       height="6"
       width="6"
       patternUnits="userSpaceOnUse"
       id="EMFhbasepattern-01" />
    <pattern
       y="0"
       x="0"
       height="6"
       width="6"
       patternUnits="userSpaceOnUse"
       id="EMFhbasepattern-07" />
    <pattern
       y="0"
       x="0"
       height="6"
       width="6"
       patternUnits="userSpaceOnUse"
       id="EMFhbasepattern-8" />
    <pattern
       y="0"
       x="0"
       height="6"
       width="6"
       patternUnits="userSpaceOnUse"
       id="EMFhbasepattern-4" />
    <pattern
       y="0"
       x="0"
       height="6"
       width="6"
       patternUnits="userSpaceOnUse"
       id="EMFhbasepattern-40" />
    <pattern
       y="0"
       x="0"
       height="6"
       width="6"
       patternUnits="userSpaceOnUse"
       id="EMFhbasepattern-08" />
    <pattern
       y="0"
       x="0"
       height="6"
       width="6"
       patternUnits="userSpaceOnUse"
       id="EMFhbasepattern-04" />
    <pattern
       y="0"
       x="0"
       height="6"
       width="6"
       patternUnits="userSpaceOnUse"
       id="EMFhbasepattern-014" />
    <pattern
       y="0"
       x="0"
       height="6"
       width="6"
       patternUnits="userSpaceOnUse"
       id="EMFhbasepattern-27" />
    <pattern
       y="0"
       x="0"
       height="6"
       width="6"
       patternUnits="userSpaceOnUse"
       id="EMFhbasepattern-09" />
    <pattern
       y="0"
       x="0"
       height="6"
       width="6"
       patternUnits="userSpaceOnUse"
       id="EMFhbasepattern-5" />
    <pattern
       y="0"
       x="0"
       height="6"
       width="6"
       patternUnits="userSpaceOnUse"
       id="EMFhbasepattern-018" />
  </defs>
  <sodipodi:namedview
     inkscape:document-rotation="0"
     inkscape:snap-global="true"
     inkscape:snap-nodes="false"
     inkscape:bbox-nodes="true"
     inkscape:snap-bbox="true"
     showguides="true"
     inkscape:snap-midpoints="true"
     inkscape:snap-smooth-nodes="true"
     inkscape:snap-intersection-paths="true"
     inkscape:object-paths="true"
     inkscape:showpageshadow="false"
     inkscape:pagecheckerboard="true"
     inkscape:window-maximized="1"
     inkscape:window-y="-8"
     inkscape:window-x="-8"
     inkscape:window-height="715"
     inkscape:window-width="1366"
     units="pt"
     showgrid="false"
     inkscape:current-layer="layer1"
     inkscape:document-units="pt"
     inkscape:cy="42.666667"
     inkscape:cx="-46.521273"
     inkscape:zoom="2.175182"
     inkscape:pageshadow="2"
     inkscape:pageopacity="0.0"
     borderopacity="1.0"
     bordercolor="#666666"
     pagecolor="#ffffff"
     id="base">
    <inkscape:grid
       id="grid1378"
       type="xygrid" />
    <sodipodi:guide
       inkscape:locked="false"
       id="guide1380"
       orientation="78.000048,0"
       position="0.97013831,21.607643" />
    <sodipodi:guide
       inkscape:locked="false"
       id="guide1382"
       orientation="0,78.000005"
       position="0.97013831,0.97013129" />
    <sodipodi:guide
       inkscape:locked="false"
       id="guide1384"
       orientation="-78.000048,0"
       position="21.607639,0.97013129" />
    <sodipodi:guide
       inkscape:locked="false"
       id="guide1386"
       orientation="0,-78.000005"
       position="21.607639,21.607643" />
  </sodipodi:namedview>
  <metadata
     id="metadata828">
    <rdf:RDF>
      <cc:Work
         rdf:about="">
        <dc:format>image/svg+xml</dc:format>
        <dc:type
           rdf:resource="http://purl.org/dc/dcmitype/StillImage" />
        <dc:title />
      </cc:Work>
    </rdf:RDF>
  </metadata>
  <g
     transform="translate(0,-274.42223)"
     id="layer1"
     inkscape:groupmode="layer"
     inkscape:label="Icon">
    <path
       id="path1354"
       style="color:#000000;font-style:normal;font-variant:normal;font-weight:normal;font-stretch:normal;font-size:medium;line-height:normal;font-family:sans-serif;font-variant-ligatures:normal;font-variant-position:normal;font-variant-caps:normal;font-variant-numeric:normal;font-variant-alternates:normal;font-variant-east-asian:normal;font-feature-settings:normal;font-variation-settings:normal;text-indent:0;text-align:start;text-decoration:none;text-decoration-line:none;text-decoration-style:solid;text-decoration-color:#000000;letter-spacing:normal;word-spacing:normal;text-transform:none;writing-mode:lr-tb;direction:ltr;text-orientation:mixed;dominant-baseline:auto;baseline-shift:baseline;text-anchor:start;white-space:normal;shape-padding:0;shape-margin:0;inline-size:0;clip-rule:nonzero;display:inline;overflow:visible;visibility:visible;opacity:1;isolation:auto;mix-blend-mode:normal;color-interpolation:sRGB;color-interpolation-filters:linearRGB;solid-color:#000000;solid-opacity:1;vector-effect:none;fill:#000000;fill-opacity:1;fill-rule:nonzero;stroke:none;stroke-width:0.699626;stroke-linecap:round;stroke-linejoin:round;stroke-miterlimit:4;stroke-dasharray:none;stroke-dashoffset:0;stroke-opacity:1;color-rendering:auto;image-rendering:auto;shape-rendering:auto;text-rendering:auto;enable-background:accumulate;stop-color:#000000;stop-opacity:1"
       d="m 3.5923523,275.39236 c -0.7686384,0 -1.3992539,0.6306 -1.3992473,1.39924 v 18.53797 H 1.4927966 c -0.1934636,7.7e-4 -0.3495771,0.1584 -0.348444,0.35186 6.994e-4,0.19213 0.1563131,0.3477 0.348444,0.34844 H 21.082246 c 0.193198,7.7e-4 0.350427,-0.15524 0.35118,-0.34844 10e-4,-0.19453 -0.156647,-0.35263 -0.35118,-0.35186 H 20.384673 V 276.7916 c 3e-6,-0.76864 -0.630609,-1.39924 -1.399247,-1.39924 z m 0,0.69963 H 18.985426 c 0.390538,0 0.699627,0.30907 0.699623,0.69961 v 18.53797 h -1.399245 v -14.69004 c 0.0355,-0.77829 -0.567039,-1.38759 -1.399929,-1.39993 h -2.391973 c -0.384976,-1.40997 -1.678998,-2.44633 -3.228244,-2.42613 -1.5502217,0.0202 -2.8041598,1.04044 -3.1831488,2.42613 H 5.691904 c -0.7804225,0.0186 -1.3878042,0.56702 -1.3999294,1.39993 v 14.69004 H 2.8927287 V 276.7916 c -4e-6,-0.39054 0.3090871,-0.69961 0.6996236,-0.69961 z m 0.3176981,0.69756 c -0.1931938,7.6e-4 -0.349199,0.15798 -0.3484441,0.35118 7.007e-4,0.19214 0.1563132,0.3477 0.3484441,0.34845 l 0.7310505,0.003 c 0.1942647,7.6e-4 0.3519384,-0.15692 0.3511795,-0.35118 -3.504e-4,-0.19266 -0.1564666,-0.34875 -0.3491289,-0.34913 z m 14.0245776,0.003 c -0.192662,3.8e-4 -0.348756,0.15647 -0.34913,0.34913 -7e-4,0.19347 0.155666,0.3508 0.34913,0.35118 h 0.7331 c 0.192396,-7.5e-4 0.34807,-0.15674 0.348444,-0.34913 6.99e-4,-0.1932 -0.15525,-0.35043 -0.348444,-0.35118 z m -6.664185,0.71397 c 1.138889,-0.0139 1.986773,0.74944 2.363275,1.73403 h -2.201351 l -0.818506,-0.8185 c -0.198799,-0.14739 -0.361712,-0.10749 -0.493287,0 -0.1374859,0.13676 -0.1374859,0.35926 0,0.49602 l 0.321798,0.32179 c -0.5001216,-8e-4 -0.9999395,-0.001 -1.5017299,-0.003 0.3704336,-0.9665 1.1898009,-1.71744 2.3298009,-1.7313 v 2e-5 z m -7.3603926,0.68596 c -0.1921309,7.4e-4 -0.3476944,0.15631 -0.3484441,0.34844 7.007e-4,0.19213 0.1563132,0.34771 0.3484441,0.34845 l 0.7310505,0.003 c 0.1942647,7.7e-4 0.3519384,-0.15692 0.3511795,-0.35118 -6.994e-4,-0.1924 -0.1567337,-0.34808 -0.3491289,-0.34845 z m 14.0245776,0 c -0.192397,3.8e-4 -0.348378,0.15605 -0.34913,0.34844 6.99e-4,0.1924 0.156733,0.34808 0.34913,0.34845 l 0.7331,0.003 c 0.193194,-7.8e-4 0.349199,-0.15798 0.348444,-0.35118 -7.01e-4,-0.19213 -0.156313,-0.34769 -0.348444,-0.34845 z M 5.691904,279.9405 c 4.0545017,0.001 7.268927,0 11.193971,0 0.06251,0 0.121596,0.0106 0.179005,0.0253 -0.27216,0.27281 -0.54409,0.54582 -0.816457,0.81852 -0.183965,-0.0895 -0.387633,-0.14417 -0.604653,-0.14417 H 6.9340078 c -0.2170199,0 -0.4206875,0.0546 -0.604653,0.14417 -0.2723109,-0.27264 -0.5443205,-0.54574 -0.8164569,-0.81852 0.057407,-0.0149 0.1164922,-0.0253 0.1790061,-0.0253 z m -0.6743433,0.51994 c 0.2588862,0.25839 0.5172527,0.51707 0.7761415,0.77546 -0.1618886,0.22828 -0.2596265,0.5045 -0.2596226,0.80347 v 13.2908 H 4.9922804 v -14.69004 c 0,-0.0628 0.01018,-0.12203 0.025292,-0.17969 h -6.6e-6 z m 12.5426563,7e-4 c 0.0149,0.0574 0.02529,0.11648 0.02529,0.179 v 14.69004 h -0.541798 v -13.29081 c 0,-0.29897 -0.09773,-0.57519 -0.259628,-0.80347 0.258756,-0.25825 0.51742,-0.51654 0.776145,-0.77477 m -10.6262199,0.87864 h 4.0050699 v 13.9904 H 6.2343841 v -13.2908 c 0,-0.39053 0.3090977,-0.69961 0.6996237,-0.69961 z m 4.7046919,0 h 4.005071 c 0.390527,0 0.699623,0.3091 0.699623,0.69963 v 13.29077 h -4.704695 z m -4.0542592,1.52631 -0.5342856,0.92167 c -0.096224,0.16753 -0.038408,0.38136 0.1291317,0.47757 0.1675354,0.0962 0.3813623,0.0385 0.4775771,-0.12917 l 0.532231,-0.92166 c 0.096687,-0.16683 0.040153,-0.38043 -0.1263949,-0.47758 -0.2196984,-0.089 -0.3572719,-0.019 -0.478254,0.12917 z m 1.3971966,0 -1.0637851,1.84334 c -0.097149,0.16697 -0.040563,0.38109 0.126395,0.47826 0.1670012,0.0965 0.3806549,0.0397 0.4775744,-0.12706 l 1.0665153,-1.84608 c 0.096687,-0.16683 0.040153,-0.38043 -0.1263949,-0.47758 -0.2199933,-0.0894 -0.3591229,-0.0235 -0.4803047,0.12917 z m 4.5393506,0 -0.531549,0.92167 c -0.09669,0.16682 -0.04015,0.38042 0.126395,0.47757 0.167535,0.0962 0.381357,0.0385 0.477573,-0.12917 l 0.534967,-0.92166 c 0.09622,-0.16754 0.03841,-0.38137 -0.129132,-0.47758 -0.218587,-0.0898 -0.368366,-0.0225 -0.47826,0.12917 z m 1.399929,0 -1.066516,1.84334 c -0.09669,0.16769 -0.03882,0.38203 0.129131,0.47826 0.167,0.0966 0.380658,0.0398 0.477578,-0.12706 l 1.066516,-1.84608 c 0.09622,-0.16754 0.03841,-0.38137 -0.129132,-0.47758 -0.218344,-0.0896 -0.372842,-0.0174 -0.477575,0.12917 z m 4.06246,3.01917 c -0.192397,3.9e-4 -0.348374,0.15605 -0.349126,0.34845 v 0.003 c -7e-4,0.19347 0.155662,0.3508 0.349126,0.35119 0.194265,7.6e-4 0.351938,-0.15691 0.351179,-0.35119 v -0.003 c -6.99e-4,-0.1932 -0.157981,-0.3492 -0.351179,-0.34845 z m -9.0308759,1.36782 c -0.1942647,-7.7e-4 -0.3519384,0.15691 -0.3511795,0.35118 l 6.994e-4,0.38261 H 9.222148 c -0.1934635,-10e-4 -0.3511094,0.15498 -0.3518617,0.34845 -6.994e-4,0.19452 0.1573312,0.35231 0.3518617,0.35116 h 0.381238 l 7.008e-4,0.38193 c 6.994e-4,0.1932 0.1579817,0.34921 0.3511782,0.34844 0.193195,-7.7e-4 0.3492,-0.15798 0.348444,-0.35117 l -0.0015,-0.70099 c 6.99e-4,-0.009 0.0015,-0.0196 0.0015,-0.0294 -2.4e-5,-0.0106 -3.49e-4,-0.0201 -0.0015,-0.03 l -0.0015,-0.70099 c 7e-4,-0.1932 -0.155248,-0.35043 -0.3484437,-0.35118 z m 2.7684289,0 c -0.194264,-7.7e-4 -0.351938,0.15691 -0.351179,0.35118 v 1.46142 c -7e-4,0.19319 0.15525,0.35043 0.348448,0.35117 0.193194,7.8e-4 0.350423,-0.15524 0.351176,-0.34844 v -0.38193 h 0.381924 c 0.194265,7.8e-4 0.351938,-0.15691 0.351179,-0.35116 -7e-4,-0.19321 -0.157981,-0.34922 -0.351179,-0.34845 h -0.381926 v -0.38261 c 7e-4,-0.1932 -0.15525,-0.35043 -0.348443,-0.35118 z m 6.262447,0.0315 c -0.192397,3.9e-4 -0.348374,0.15606 -0.349126,0.34845 v 0.003 c -7e-4,0.19346 0.155662,0.3508 0.349126,0.35117 0.194265,7.7e-4 0.351938,-0.15691 0.351179,-0.35117 v -0.003 c -6.99e-4,-0.19319 -0.157981,-0.3492 -0.351179,-0.34845 z"
       sodipodi:nodetypes="sccccccccccssssccccccsccccccscsccccccccccccccccccccscccccsccccccsccccccssccccccccsccccccsccsccsscssccccccccccccccccccccccccccccccccsscsscscccscccscccccssccsccsscccscsscsscsscsssc" />
  </g>
</svg>
